<svg xmlns="http://www.w3.org/2000/svg" viewBox="0 0 99.49 77.56"><defs><style>.cls-1{fill:#29b473;}.cls-2{fill:#1c1f2a;}.cls-3{fill:#1aba73;}</style></defs><title>NexusRepoOSS_Vertical</title><g id="Product_Logos_Vertical" data-name="Product Logos Vertical"><g id="Nexus_Repo_OSS" data-name="Nexus Repo OSS"><path class="cls-1" d="M50.37,27V19.56a3.77,3.77,0,0,1,2.77-1.28,3.61,3.61,0,0,1,.82.07V15.46a4.93,4.93,0,0,0-3.59,1.79V15.74H47.42V27Z"/><polygon class="cls-2" points="31.24 10.18 31.24 31.56 49.75 42.25 68.24 31.56 68.24 11.3 63.7 13.92 63.7 28.94 49.75 37 35.79 28.94 35.79 12.81 48.87 5.25 48.87 0 31.24 10.18"/><polygon class="cls-1" points="50.69 0 50.69 5.25 62.97 12.35 67.51 9.73 50.69 0"/><path d="M35,53.55c0-1.4-.72-1.86-1.81-1.86a3.06,3.06,0,0,0-2.34,1.23V59H29.27v-8.5h1.58v1.2a4,4,0,0,1,3-1.41A2.44,2.44,0,0,1,36.59,53v6H35Z"/><path d="M41.78,50.28c2.55,0,4.13,2,4.13,4.59v.39H39.19a2.8,2.8,0,0,0,2.89,2.64,3.63,3.63,0,0,0,2.52-1l.73,1a4.76,4.76,0,0,1-3.41,1.27,4.46,4.46,0,0,1-.14-8.92Zm-2.6,3.84h5.19a2.53,2.53,0,0,0-2.59-2.54A2.59,2.59,0,0,0,39.18,54.12Z"/><path d="M50,55.68,47.59,59h-1.8L49,54.63l-3-4.14h1.79L50,53.55l2.18-3.06H54l-3,4.14L54.15,59H52.36Z"/><path d="M60.59,57.83a4.2,4.2,0,0,1-3,1.37,2.4,2.4,0,0,1-2.71-2.71v-6h1.58V56c0,1.41.71,1.83,1.8,1.83a3.06,3.06,0,0,0,2.35-1.19V50.49h1.59V59H60.59Z"/><path d="M64,56.72a4.13,4.13,0,0,0,2.85,1.21c1.2,0,1.83-.49,1.83-1.21s-1-1.13-2.06-1.37c-1.44-.34-3.13-.72-3.13-2.55,0-1.36,1.16-2.52,3.24-2.52A4.55,4.55,0,0,1,70,51.49l-.7,1.11a3.3,3.3,0,0,0-2.52-1c-1.07,0-1.74.42-1.74,1.1s.92,1,2,1.23c1.48.34,3.24.74,3.24,2.7,0,1.46-1.2,2.6-3.43,2.6a4.86,4.86,0,0,1-3.54-1.32Z"/><path class="cls-3" d="M0,65.61H1.58v1.3a3.63,3.63,0,0,1,2.78-1.49V67a2.16,2.16,0,0,0-.54,0A3,3,0,0,0,1.58,68.2v5.91H0Z"/><path class="cls-3" d="M9,65.4c2.56,0,4.14,2,4.14,4.59v.39H6.39A2.79,2.79,0,0,0,9.27,73a3.61,3.61,0,0,0,2.52-1l.74,1a4.77,4.77,0,0,1-3.41,1.27A4.46,4.46,0,0,1,9,65.4Zm-2.6,3.83h5.19A2.51,2.51,0,0,0,9,66.7,2.6,2.6,0,0,0,6.37,69.23Z"/><path class="cls-3" d="M14.4,77.35V65.61H16v1.21a3.48,3.48,0,0,1,2.78-1.42c2.22,0,3.78,1.67,3.78,4.45S21,74.32,18.76,74.32A3.4,3.4,0,0,1,16,72.88v4.47Zm3.94-10.54A2.9,2.9,0,0,0,16,68.06v3.6a3,3,0,0,0,2.36,1.25c1.58,0,2.55-1.28,2.55-3.06S19.92,66.81,18.34,66.81Z"/><path class="cls-3" d="M23.32,69.85a4.3,4.3,0,1,1,4.29,4.47A4.22,4.22,0,0,1,23.32,69.85Zm6.93,0c0-1.6-.93-3-2.64-3a2.76,2.76,0,0,0-2.64,3c0,1.62,1,3.06,2.64,3.06S30.25,71.47,30.25,69.85Z"/><path class="cls-3" d="M33.23,71.84a4.13,4.13,0,0,0,2.85,1.21c1.19,0,1.83-.49,1.83-1.21s-1-1.13-2.06-1.37c-1.44-.34-3.13-.72-3.13-2.55,0-1.36,1.16-2.52,3.24-2.52a4.55,4.55,0,0,1,3.23,1.21l-.7,1.11a3.3,3.3,0,0,0-2.52-1c-1.07,0-1.74.43-1.74,1.11s.92,1,2,1.23c1.48.34,3.24.74,3.24,2.7,0,1.46-1.2,2.6-3.43,2.6A4.83,4.83,0,0,1,32.47,73Z"/><path class="cls-3" d="M40.5,63.18a1,1,0,1,1,2,0,1,1,0,0,1-2,0Zm.24,2.43h1.59v8.5H40.74Z"/><path class="cls-3" d="M44.81,72.23V67H43.4V65.61h1.41V63.29h1.58v2.32h1.73V67H46.39v4.87c0,.6.28,1,.83,1a1.24,1.24,0,0,0,.86-.33l.41,1.19a2.26,2.26,0,0,1-1.66.55A1.85,1.85,0,0,1,44.81,72.23Z"/><path class="cls-3" d="M48.65,69.85a4.29,4.29,0,1,1,4.29,4.47A4.22,4.22,0,0,1,48.65,69.85Zm6.93,0c0-1.6-.93-3-2.64-3a2.76,2.76,0,0,0-2.64,3c0,1.62,1,3.06,2.64,3.06S55.58,71.47,55.58,69.85Z"/><path class="cls-3" d="M58.18,65.61h1.59v1.3a3.61,3.61,0,0,1,2.78-1.49V67A2.29,2.29,0,0,0,62,67a3,3,0,0,0-2.23,1.23v5.91H58.18Z"/><path class="cls-3" d="M65,76.15a1.17,1.17,0,0,0,1.23-.83l.5-1.12-3.5-8.59h1.69l2.65,6.67,2.66-6.67h1.7L67.76,75.73a2.7,2.7,0,0,1-2.71,1.83,4.63,4.63,0,0,1-1-.13L64.31,76A1.86,1.86,0,0,0,65,76.15Z"/><path class="cls-3" d="M75.84,69.85a4.29,4.29,0,1,1,4.29,4.47A4.22,4.22,0,0,1,75.84,69.85Zm6.93,0c0-1.6-.93-3-2.64-3a2.76,2.76,0,0,0-2.64,3c0,1.62,1,3.06,2.64,3.06S82.77,71.47,82.77,69.85Z"/><path class="cls-3" d="M85.75,71.84a4.11,4.11,0,0,0,2.85,1.21c1.19,0,1.83-.49,1.83-1.21s-1-1.13-2.06-1.37c-1.45-.34-3.14-.72-3.14-2.55,0-1.36,1.17-2.52,3.24-2.52a4.58,4.58,0,0,1,3.24,1.21L91,67.72a3.33,3.33,0,0,0-2.52-1c-1.07,0-1.74.43-1.74,1.11s.91,1,2,1.23c1.48.34,3.24.74,3.24,2.7,0,1.46-1.2,2.6-3.44,2.6A4.82,4.82,0,0,1,85,73Z"/><path class="cls-3" d="M93.28,71.84a4.11,4.11,0,0,0,2.85,1.21c1.19,0,1.83-.49,1.83-1.21s-1-1.13-2.06-1.37c-1.44-.34-3.13-.72-3.13-2.55,0-1.36,1.16-2.52,3.23-2.52a4.58,4.58,0,0,1,3.24,1.21l-.7,1.11a3.3,3.3,0,0,0-2.52-1c-1.07,0-1.74.43-1.74,1.11s.92,1,2,1.23c1.48.34,3.24.74,3.24,2.7,0,1.46-1.2,2.6-3.43,2.6A4.83,4.83,0,0,1,92.52,73Z"/></g></g></svg>